<?xml version="1.0" encoding="utf-8"?>
<svg xmlns="http://www.w3.org/2000/svg" xmlns:xlink="http://www.w3.org/1999/xlink" style="background: rgb(0, 0, 0); display: block; position: relative; shape-rendering: auto;" width="245" height="245" preserveAspectRatio="xMidYMid" viewBox="0 0 245 245"><g transform="scale(0.96)"><defs>
  <filter id="pat-0.8692919104062846" x="-100%" y="-100%" width="300%" height="300%" color-interpolation-filters="sRGB">
    <feGaussianBlur in="SourceGraphic" stdDeviation="14.05"></feGaussianBlur>
    <feComponentTransfer result="cutoff">
      <feFuncA type="linear" slope="60" intercept="-40"></feFuncA>
    </feComponentTransfer>
  </filter>
</defs><g style="isolation:isolate" filter="url(#pat-0.8692919104062846)"><g>
  <circle cx="-13.130546357100627" cy="185.62373611739457" r="24.087133163793027" fill="#ffff00"></circle> <circle cx="242.86945364289937" cy="185.62373611739457" r="24.087133163793027" fill="#ffff00"></circle> <circle cx="498.8694536428994" cy="185.62373611739457" r="24.087133163793027" fill="#ffff00"></circle> <circle cx="-13.130546357100627" cy="441.62373611739457" r="24.087133163793027" fill="#ffff00"></circle> <circle cx="242.86945364289937" cy="441.62373611739457" r="24.087133163793027" fill="#ffff00"></circle> <circle cx="498.8694536428994" cy="441.62373611739457" r="24.087133163793027" fill="#ffff00"></circle> <circle cx="-13.130546357100627" cy="697.6237361173946" r="24.087133163793027" fill="#ffff00"></circle> <circle cx="242.86945364289937" cy="697.6237361173946" r="24.087133163793027" fill="#ffff00"></circle> <circle cx="498.8694536428994" cy="697.6237361173946" r="24.087133163793027" fill="#ffff00"></circle> <circle cx="-107.5397286334233" cy="98.10028646551893" r="34.767364330362014" fill="#ffff00"></circle> <circle cx="148.4602713665767" cy="98.10028646551893" r="34.767364330362014" fill="#ffff00"></circle> <circle cx="404.4602713665767" cy="98.10028646551893" r="34.767364330362014" fill="#ffff00"></circle> <circle cx="-107.5397286334233" cy="354.10028646551893" r="34.767364330362014" fill="#ffff00"></circle> <circle cx="148.4602713665767" cy="354.10028646551893" r="34.767364330362014" fill="#ffff00"></circle> <circle cx="404.4602713665767" cy="354.10028646551893" r="34.767364330362014" fill="#ffff00"></circle> <circle cx="-107.5397286334233" cy="610.1002864655189" r="34.767364330362014" fill="#ffff00"></circle> <circle cx="148.4602713665767" cy="610.1002864655189" r="34.767364330362014" fill="#ffff00"></circle> <circle cx="404.4602713665767" cy="610.1002864655189" r="34.767364330362014" fill="#ffff00"></circle> <circle cx="-252.6884612669852" cy="201.75347497492805" r="28.662951011701676" fill="#ffff00"></circle> <circle cx="3.3115387330147996" cy="201.75347497492805" r="28.662951011701676" fill="#ffff00"></circle> <circle cx="259.3115387330148" cy="201.75347497492805" r="28.662951011701676" fill="#ffff00"></circle> <circle cx="-252.6884612669852" cy="457.75347497492805" r="28.662951011701676" fill="#ffff00"></circle> <circle cx="3.3115387330147996" cy="457.75347497492805" r="28.662951011701676" fill="#ffff00"></circle> <circle cx="259.3115387330148" cy="457.75347497492805" r="28.662951011701676" fill="#ffff00"></circle> <circle cx="-252.6884612669852" cy="713.753474974928" r="28.662951011701676" fill="#ffff00"></circle> <circle cx="3.3115387330147996" cy="713.753474974928" r="28.662951011701676" fill="#ffff00"></circle> <circle cx="259.3115387330148" cy="713.753474974928" r="28.662951011701676" fill="#ffff00"></circle> <circle cx="-217.28656236409984" cy="21.68951526620822" r="35.06537899881671" fill="#ffff00"></circle> <circle cx="38.71343763590016" cy="21.68951526620822" r="35.06537899881671" fill="#ffff00"></circle> <circle cx="294.71343763590016" cy="21.68951526620822" r="35.06537899881671" fill="#ffff00"></circle> <circle cx="-217.28656236409984" cy="277.6895152662082" r="35.06537899881671" fill="#ffff00"></circle> <circle cx="38.71343763590016" cy="277.6895152662082" r="35.06537899881671" fill="#ffff00"></circle> <circle cx="294.71343763590016" cy="277.6895152662082" r="35.06537899881671" fill="#ffff00"></circle> <circle cx="-217.28656236409984" cy="533.6895152662082" r="35.06537899881671" fill="#ffff00"></circle> <circle cx="38.71343763590016" cy="533.6895152662082" r="35.06537899881671" fill="#ffff00"></circle> <circle cx="294.71343763590016" cy="533.6895152662082" r="35.06537899881671" fill="#ffff00"></circle> 
  <animateTransform attributeName="transform" type="translate" dur="50s" repeatCount="indefinite" keyTimes="0;1" values="0 0;0 -256"></animateTransform>
</g><g>
  <circle cx="-238.68505199886243" cy="72.28002244711234" r="8.898706328564977" fill="#ffdf84"></circle> <circle cx="17.314948001137566" cy="72.28002244711234" r="8.898706328564977" fill="#ffdf84"></circle> <circle cx="273.31494800113757" cy="72.28002244711234" r="8.898706328564977" fill="#ffdf84"></circle> <circle cx="-238.68505199886243" cy="328.28002244711234" r="8.898706328564977" fill="#ffdf84"></circle> <circle cx="17.314948001137566" cy="328.28002244711234" r="8.898706328564977" fill="#ffdf84"></circle> <circle cx="273.31494800113757" cy="328.28002244711234" r="8.898706328564977" fill="#ffdf84"></circle> <circle cx="-238.68505199886243" cy="584.2800224471123" r="8.898706328564977" fill="#ffdf84"></circle> <circle cx="17.314948001137566" cy="584.2800224471123" r="8.898706328564977" fill="#ffdf84"></circle> <circle cx="273.31494800113757" cy="584.2800224471123" r="8.898706328564977" fill="#ffdf84"></circle> <circle cx="-46.055930754410895" cy="59.55143255943403" r="13.622676463261424" fill="#ffdf84"></circle> <circle cx="209.9440692455891" cy="59.55143255943403" r="13.622676463261424" fill="#ffdf84"></circle> <circle cx="465.9440692455891" cy="59.55143255943403" r="13.622676463261424" fill="#ffdf84"></circle> <circle cx="-46.055930754410895" cy="315.55143255943403" r="13.622676463261424" fill="#ffdf84"></circle> <circle cx="209.9440692455891" cy="315.55143255943403" r="13.622676463261424" fill="#ffdf84"></circle> <circle cx="465.9440692455891" cy="315.55143255943403" r="13.622676463261424" fill="#ffdf84"></circle> <circle cx="-46.055930754410895" cy="571.551432559434" r="13.622676463261424" fill="#ffdf84"></circle> <circle cx="209.9440692455891" cy="571.551432559434" r="13.622676463261424" fill="#ffdf84"></circle> <circle cx="465.9440692455891" cy="571.551432559434" r="13.622676463261424" fill="#ffdf84"></circle> <circle cx="-11.366729740122935" cy="169.22328556238415" r="3.7559660471301903" fill="#ffdf84"></circle> <circle cx="244.63327025987707" cy="169.22328556238415" r="3.7559660471301903" fill="#ffdf84"></circle> <circle cx="500.63327025987707" cy="169.22328556238415" r="3.7559660471301903" fill="#ffdf84"></circle> <circle cx="-11.366729740122935" cy="425.22328556238415" r="3.7559660471301903" fill="#ffdf84"></circle> <circle cx="244.63327025987707" cy="425.22328556238415" r="3.7559660471301903" fill="#ffdf84"></circle> <circle cx="500.63327025987707" cy="425.22328556238415" r="3.7559660471301903" fill="#ffdf84"></circle> <circle cx="-11.366729740122935" cy="681.2232855623841" r="3.7559660471301903" fill="#ffdf84"></circle> <circle cx="244.63327025987707" cy="681.2232855623841" r="3.7559660471301903" fill="#ffdf84"></circle> <circle cx="500.63327025987707" cy="681.2232855623841" r="3.7559660471301903" fill="#ffdf84"></circle> 
  <animateTransform attributeName="transform" type="translate" dur="25s" repeatCount="indefinite" keyTimes="0;1" values="0 0;0 -256"></animateTransform>
</g><g>
  <circle cx="-142.01794216751182" cy="97.8138804022484" r="31.688781557604464" fill="#493600"></circle> <circle cx="113.98205783248818" cy="97.8138804022484" r="31.688781557604464" fill="#493600"></circle> <circle cx="369.9820578324882" cy="97.8138804022484" r="31.688781557604464" fill="#493600"></circle> <circle cx="-142.01794216751182" cy="353.8138804022484" r="31.688781557604464" fill="#493600"></circle> <circle cx="113.98205783248818" cy="353.8138804022484" r="31.688781557604464" fill="#493600"></circle> <circle cx="369.9820578324882" cy="353.8138804022484" r="31.688781557604464" fill="#493600"></circle> <circle cx="-142.01794216751182" cy="609.8138804022484" r="31.688781557604464" fill="#493600"></circle> <circle cx="113.98205783248818" cy="609.8138804022484" r="31.688781557604464" fill="#493600"></circle> <circle cx="369.9820578324882" cy="609.8138804022484" r="31.688781557604464" fill="#493600"></circle> <circle cx="-53.81894707373414" cy="151.74075534492363" r="5.913791677575285" fill="#493600"></circle> <circle cx="202.18105292626586" cy="151.74075534492363" r="5.913791677575285" fill="#493600"></circle> <circle cx="458.18105292626586" cy="151.74075534492363" r="5.913791677575285" fill="#493600"></circle> <circle cx="-53.81894707373414" cy="407.7407553449236" r="5.913791677575285" fill="#493600"></circle> <circle cx="202.18105292626586" cy="407.7407553449236" r="5.913791677575285" fill="#493600"></circle> <circle cx="458.18105292626586" cy="407.7407553449236" r="5.913791677575285" fill="#493600"></circle> <circle cx="-53.81894707373414" cy="663.7407553449236" r="5.913791677575285" fill="#493600"></circle> <circle cx="202.18105292626586" cy="663.7407553449236" r="5.913791677575285" fill="#493600"></circle> <circle cx="458.18105292626586" cy="663.7407553449236" r="5.913791677575285" fill="#493600"></circle> <circle cx="-169.83252010680195" cy="240.3716318954086" r="10.823108141543837" fill="#493600"></circle> <circle cx="86.16747989319805" cy="240.3716318954086" r="10.823108141543837" fill="#493600"></circle> <circle cx="342.16747989319805" cy="240.3716318954086" r="10.823108141543837" fill="#493600"></circle> <circle cx="-169.83252010680195" cy="496.3716318954086" r="10.823108141543837" fill="#493600"></circle> <circle cx="86.16747989319805" cy="496.3716318954086" r="10.823108141543837" fill="#493600"></circle> <circle cx="342.16747989319805" cy="496.3716318954086" r="10.823108141543837" fill="#493600"></circle> <circle cx="-169.83252010680195" cy="752.3716318954087" r="10.823108141543837" fill="#493600"></circle> <circle cx="86.16747989319805" cy="752.3716318954087" r="10.823108141543837" fill="#493600"></circle> <circle cx="342.16747989319805" cy="752.3716318954087" r="10.823108141543837" fill="#493600"></circle> 
  <animateTransform attributeName="transform" type="translate" dur="16.666666666666668s" repeatCount="indefinite" keyTimes="0;1" values="0 0;0 -256"></animateTransform>
</g></g></g></svg>