<svg xmlns="http://www.w3.org/2000/svg" style="background:rgb(0, 0, 0)" width="245" height="245" preserveAspectRatio="xMidYMid" xmlns:v="https://vecta.io/nano"><g transform="scale(.96)"><defs><filter id="A" x="-100%" y="-100%" width="300%" height="300%" color-interpolation-filters="sRGB"><feGaussianBlur in="SourceGraphic" stdDeviation="14.05"/><feComponentTransfer><feFuncA type="linear" slope="60" intercept="-40"/></feComponentTransfer></filter></defs><g filter="url(#A)"><g><g fill="#ff0"><circle cx="-13.131" cy="185.624" r="24.087"/><circle cx="242.869" cy="185.624" r="24.087"/><circle cx="498.869" cy="185.624" r="24.087"/><circle cx="-13.131" cy="441.624" r="24.087"/><circle cx="242.869" cy="441.624" r="24.087"/><circle cx="498.869" cy="441.624" r="24.087"/><circle cx="-13.131" cy="697.624" r="24.087"/><circle cx="242.869" cy="697.624" r="24.087"/><circle cx="498.869" cy="697.624" r="24.087"/><circle cx="-107.54" cy="98.1" r="34.767"/><circle cx="148.46" cy="98.1" r="34.767"/><circle cx="404.46" cy="98.1" r="34.767"/><circle cx="-107.54" cy="354.1" r="34.767"/><circle cx="148.46" cy="354.1" r="34.767"/><circle cx="404.46" cy="354.1" r="34.767"/><circle cx="-107.54" cy="610.1" r="34.767"/><circle cx="148.46" cy="610.1" r="34.767"/><circle cx="404.46" cy="610.1" r="34.767"/><circle cx="-252.688" cy="201.753" r="28.663"/><circle cx="3.312" cy="201.753" r="28.663"/><circle cx="259.312" cy="201.753" r="28.663"/><circle cx="-252.688" cy="457.753" r="28.663"/><circle cx="3.312" cy="457.753" r="28.663"/><circle cx="259.312" cy="457.753" r="28.663"/><circle cx="-252.688" cy="713.753" r="28.663"/><circle cx="3.312" cy="713.753" r="28.663"/><circle cx="259.312" cy="713.753" r="28.663"/><circle cx="-217.287" cy="21.69" r="35.065"/><circle cx="38.713" cy="21.69" r="35.065"/><circle cx="294.713" cy="21.69" r="35.065"/><circle cx="-217.287" cy="277.69" r="35.065"/><circle cx="38.713" cy="277.69" r="35.065"/><circle cx="294.713" cy="277.69" r="35.065"/><circle cx="-217.287" cy="533.69" r="35.065"/><circle cx="38.713" cy="533.69" r="35.065"/><circle cx="294.713" cy="533.69" r="35.065"/></g><animateTransform attributeName="transform" type="translate" dur="50s" repeatCount="indefinite" keyTimes="0;1" values="0 0;0 -256"/></g><g><g fill="#ffdf84"><circle cx="-238.685" cy="72.28" r="8.899"/><circle cx="17.315" cy="72.28" r="8.899"/><circle cx="273.315" cy="72.28" r="8.899"/><circle cx="-238.685" cy="328.28" r="8.899"/><circle cx="17.315" cy="328.28" r="8.899"/><circle cx="273.315" cy="328.28" r="8.899"/><circle cx="-238.685" cy="584.28" r="8.899"/><circle cx="17.315" cy="584.28" r="8.899"/><circle cx="273.315" cy="584.28" r="8.899"/><circle cx="-46.056" cy="59.551" r="13.623"/><circle cx="209.944" cy="59.551" r="13.623"/><circle cx="465.944" cy="59.551" r="13.623"/><circle cx="-46.056" cy="315.551" r="13.623"/><circle cx="209.944" cy="315.551" r="13.623"/><circle cx="465.944" cy="315.551" r="13.623"/><circle cx="-46.056" cy="571.551" r="13.623"/><circle cx="209.944" cy="571.551" r="13.623"/><circle cx="465.944" cy="571.551" r="13.623"/><circle cx="-11.367" cy="169.223" r="3.756"/><circle cx="244.633" cy="169.223" r="3.756"/><circle cx="500.633" cy="169.223" r="3.756"/><circle cx="-11.367" cy="425.223" r="3.756"/><circle cx="244.633" cy="425.223" r="3.756"/><circle cx="500.633" cy="425.223" r="3.756"/><circle cx="-11.367" cy="681.223" r="3.756"/><circle cx="244.633" cy="681.223" r="3.756"/><circle cx="500.633" cy="681.223" r="3.756"/></g><animateTransform attributeName="transform" type="translate" dur="25s" repeatCount="indefinite" keyTimes="0;1" values="0 0;0 -256"/></g><g><g fill="#493600"><circle cx="-142.018" cy="97.814" r="31.689"/><circle cx="113.982" cy="97.814" r="31.689"/><circle cx="369.982" cy="97.814" r="31.689"/><circle cx="-142.018" cy="353.814" r="31.689"/><circle cx="113.982" cy="353.814" r="31.689"/><circle cx="369.982" cy="353.814" r="31.689"/><circle cx="-142.018" cy="609.814" r="31.689"/><circle cx="113.982" cy="609.814" r="31.689"/><circle cx="369.982" cy="609.814" r="31.689"/><circle cx="-53.819" cy="151.741" r="5.914"/><circle cx="202.181" cy="151.741" r="5.914"/><circle cx="458.181" cy="151.741" r="5.914"/><circle cx="-53.819" cy="407.741" r="5.914"/><circle cx="202.181" cy="407.741" r="5.914"/><circle cx="458.181" cy="407.741" r="5.914"/><circle cx="-53.819" cy="663.741" r="5.914"/><circle cx="202.181" cy="663.741" r="5.914"/><circle cx="458.181" cy="663.741" r="5.914"/><circle cx="-169.833" cy="240.372" r="10.823"/><circle cx="86.167" cy="240.372" r="10.823"/><circle cx="342.167" cy="240.372" r="10.823"/><circle cx="-169.833" cy="496.372" r="10.823"/><circle cx="86.167" cy="496.372" r="10.823"/><circle cx="342.167" cy="496.372" r="10.823"/><circle cx="-169.833" cy="752.372" r="10.823"/><circle cx="86.167" cy="752.372" r="10.823"/><circle cx="342.167" cy="752.372" r="10.823"/></g><animateTransform attributeName="transform" type="translate" dur="16.666666666666668s" repeatCount="indefinite" keyTimes="0;1" values="0 0;0 -256"/></g></g></g></svg>