<svg xmlns="http://www.w3.org/2000/svg" style="background:rgb(255, 255, 0)" width="424" height="424" preserveAspectRatio="xMidYMid" xmlns:v="https://vecta.io/nano"><g transform="scale(1.6600000000000001)"><defs><filter id="A" x="-100%" y="-100%" width="300%" height="300%" color-interpolation-filters="sRGB"><feGaussianBlur in="SourceGraphic" stdDeviation="10"/><feComponentTransfer><feFuncA type="linear" slope="60" intercept="-40"/></feComponentTransfer></filter></defs><g filter="url(#B)"><g filter="url(#A)"><g><g fill="undefined"><circle cx="-52.526" cy="1.06" r="20.469"/><circle cx="203.474" cy="1.06" r="20.469"/><circle cx="459.474" cy="1.06" r="20.469"/><circle cx="-52.526" cy="257.06" r="20.469"/><circle cx="203.474" cy="257.06" r="20.469"/><circle cx="459.474" cy="257.06" r="20.469"/><circle cx="-52.526" cy="513.06" r="20.469"/><circle cx="203.474" cy="513.06" r="20.469"/><circle cx="459.474" cy="513.06" r="20.469"/><circle cx="-219.209" cy="-20.142" r="27.58"/><circle cx="36.791" cy="-20.142" r="27.58"/><circle cx="292.791" cy="-20.142" r="27.58"/><circle cx="-219.209" cy="235.858" r="27.58"/><circle cx="36.791" cy="235.858" r="27.58"/><circle cx="292.791" cy="235.858" r="27.58"/><circle cx="-219.209" cy="491.858" r="27.58"/><circle cx="36.791" cy="491.858" r="27.58"/><circle cx="292.791" cy="491.858" r="27.58"/><circle cx="-219.209" cy="747.858" r="27.58"/><circle cx="36.791" cy="747.858" r="27.58"/><circle cx="292.791" cy="747.858" r="27.58"/><circle cx="-188.144" cy="-5.078" r="15.256"/><circle cx="67.856" cy="-5.078" r="15.256"/><circle cx="323.856" cy="-5.078" r="15.256"/><circle cx="-188.144" cy="250.922" r="15.256"/><circle cx="67.856" cy="250.922" r="15.256"/><circle cx="323.856" cy="250.922" r="15.256"/><circle cx="-188.144" cy="506.922" r="15.256"/><circle cx="67.856" cy="506.922" r="15.256"/><circle cx="323.856" cy="506.922" r="15.256"/><circle cx="-188.144" cy="762.922" r="15.256"/><circle cx="67.856" cy="762.922" r="15.256"/><circle cx="323.856" cy="762.922" r="15.256"/><circle cx="-178.546" cy="115.666" r="25.499"/><circle cx="77.454" cy="115.666" r="25.499"/><circle cx="333.454" cy="115.666" r="25.499"/><circle cx="-178.546" cy="371.666" r="25.499"/><circle cx="77.454" cy="371.666" r="25.499"/><circle cx="333.454" cy="371.666" r="25.499"/><circle cx="-178.546" cy="627.666" r="25.499"/><circle cx="77.454" cy="627.666" r="25.499"/><circle cx="333.454" cy="627.666" r="25.499"/></g><animateTransform attributeName="transform" type="translate" dur="7.692307692307692s" repeatCount="indefinite" keyTimes="0;1" values="0 0;0 -256"/></g><g><g fill="undefined"><circle cx="-43.613" cy="56.13" r="23.946"/><circle cx="212.387" cy="56.13" r="23.946"/><circle cx="468.387" cy="56.13" r="23.946"/><circle cx="-43.613" cy="312.13" r="23.946"/><circle cx="212.387" cy="312.13" r="23.946"/><circle cx="468.387" cy="312.13" r="23.946"/><circle cx="-43.613" cy="568.13" r="23.946"/><circle cx="212.387" cy="568.13" r="23.946"/><circle cx="468.387" cy="568.13" r="23.946"/><circle cx="-24.566" cy="32.877" r="25.156"/><circle cx="231.434" cy="32.877" r="25.156"/><circle cx="487.434" cy="32.877" r="25.156"/><circle cx="-24.566" cy="288.877" r="25.156"/><circle cx="231.434" cy="288.877" r="25.156"/><circle cx="487.434" cy="288.877" r="25.156"/><circle cx="-24.566" cy="544.877" r="25.156"/><circle cx="231.434" cy="544.877" r="25.156"/><circle cx="487.434" cy="544.877" r="25.156"/><circle cx="-118.322" cy="23.739" r="16.632"/><circle cx="137.678" cy="23.739" r="16.632"/><circle cx="393.678" cy="23.739" r="16.632"/><circle cx="-118.322" cy="279.739" r="16.632"/><circle cx="137.678" cy="279.739" r="16.632"/><circle cx="393.678" cy="279.739" r="16.632"/><circle cx="-118.322" cy="535.739" r="16.632"/><circle cx="137.678" cy="535.739" r="16.632"/><circle cx="393.678" cy="535.739" r="16.632"/><circle cx="-122.887" cy="239.563" r="11.939"/><circle cx="133.113" cy="239.563" r="11.939"/><circle cx="389.113" cy="239.563" r="11.939"/><circle cx="-122.887" cy="495.563" r="11.939"/><circle cx="133.113" cy="495.563" r="11.939"/><circle cx="389.113" cy="495.563" r="11.939"/><circle cx="-122.887" cy="751.563" r="11.939"/><circle cx="133.113" cy="751.563" r="11.939"/><circle cx="389.113" cy="751.563" r="11.939"/></g><animateTransform attributeName="transform" type="translate" dur="3.846153846153846s" repeatCount="indefinite" keyTimes="0;1" values="0 0;0 -256"/></g><g><g fill="undefined"><circle cx="-181.058" cy="-9.903" r="21.998"/><circle cx="74.942" cy="-9.903" r="21.998"/><circle cx="330.942" cy="-9.903" r="21.998"/><circle cx="-181.058" cy="246.097" r="21.998"/><circle cx="74.942" cy="246.097" r="21.998"/><circle cx="330.942" cy="246.097" r="21.998"/><circle cx="-181.058" cy="502.097" r="21.998"/><circle cx="74.942" cy="502.097" r="21.998"/><circle cx="330.942" cy="502.097" r="21.998"/><circle cx="-181.058" cy="758.097" r="21.998"/><circle cx="74.942" cy="758.097" r="21.998"/><circle cx="330.942" cy="758.097" r="21.998"/><circle cx="-9.848" cy="88.525" r="19.872"/><circle cx="246.152" cy="88.525" r="19.872"/><circle cx="502.152" cy="88.525" r="19.872"/><circle cx="-9.848" cy="344.525" r="19.872"/><circle cx="246.152" cy="344.525" r="19.872"/><circle cx="502.152" cy="344.525" r="19.872"/><circle cx="-9.848" cy="600.525" r="19.872"/><circle cx="246.152" cy="600.525" r="19.872"/><circle cx="502.152" cy="600.525" r="19.872"/><circle cx="-152.104" cy="2.369" r="27.766"/><circle cx="103.896" cy="2.369" r="27.766"/><circle cx="359.896" cy="2.369" r="27.766"/><circle cx="-152.104" cy="258.369" r="27.766"/><circle cx="103.896" cy="258.369" r="27.766"/><circle cx="359.896" cy="258.369" r="27.766"/><circle cx="-152.104" cy="514.369" r="27.766"/><circle cx="103.896" cy="514.369" r="27.766"/><circle cx="359.896" cy="514.369" r="27.766"/></g><animateTransform attributeName="transform" type="translate" dur="2.564102564102564s" repeatCount="indefinite" keyTimes="0;1" values="0 0;0 -256"/></g></g></g><filter id="B"><feDiffuseLighting lighting-color="#ffff00" surfaceScale="1.2100000000000002"><feDistantLight azimuth="45" elevation="60"/></feDiffuseLighting></filter></g></svg>