<?xml version="1.0" encoding="utf-8"?>
<svg xmlns="http://www.w3.org/2000/svg" xmlns:xlink="http://www.w3.org/1999/xlink" style="background: rgb(255, 255, 0); display: block; position: relative; shape-rendering: auto;" width="424" height="424" preserveAspectRatio="xMidYMid" viewBox="0 0 424 424"><g transform="scale(1.6600000000000001)"><defs>
  <filter id="pat-0.8687378708225983" x="-100%" y="-100%" width="300%" height="300%" color-interpolation-filters="sRGB">
    <feGaussianBlur in="SourceGraphic" stdDeviation="10"></feGaussianBlur>
    <feComponentTransfer result="cutoff">
      <feFuncA type="linear" slope="60" intercept="-40"></feFuncA>
    </feComponentTransfer>
  </filter>
</defs><g filter="url(#f)"><g style="isolation:isolate" filter="url(#pat-0.8687378708225983)">
<rect x="0" y="0" width="256" height="256" fill="none"></rect><g>
  <circle cx="-52.52600500221331" cy="1.059694776107392" r="20.469216127785124" fill="undefined"></circle> <circle cx="203.4739949977867" cy="1.059694776107392" r="20.469216127785124" fill="undefined"></circle> <circle cx="459.4739949977867" cy="1.059694776107392" r="20.469216127785124" fill="undefined"></circle> <circle cx="-52.52600500221331" cy="257.0596947761074" r="20.469216127785124" fill="undefined"></circle> <circle cx="203.4739949977867" cy="257.0596947761074" r="20.469216127785124" fill="undefined"></circle> <circle cx="459.4739949977867" cy="257.0596947761074" r="20.469216127785124" fill="undefined"></circle> <circle cx="-52.52600500221331" cy="513.0596947761073" r="20.469216127785124" fill="undefined"></circle> <circle cx="203.4739949977867" cy="513.0596947761073" r="20.469216127785124" fill="undefined"></circle> <circle cx="459.4739949977867" cy="513.0596947761073" r="20.469216127785124" fill="undefined"></circle> <circle cx="-219.20906204943702" cy="-20.1415584496404" r="27.57993852815792" fill="undefined"></circle> <circle cx="36.79093795056298" cy="-20.1415584496404" r="27.57993852815792" fill="undefined"></circle> <circle cx="292.790937950563" cy="-20.1415584496404" r="27.57993852815792" fill="undefined"></circle> <circle cx="-219.20906204943702" cy="235.8584415503596" r="27.57993852815792" fill="undefined"></circle> <circle cx="36.79093795056298" cy="235.8584415503596" r="27.57993852815792" fill="undefined"></circle> <circle cx="292.790937950563" cy="235.8584415503596" r="27.57993852815792" fill="undefined"></circle> <circle cx="-219.20906204943702" cy="491.8584415503596" r="27.57993852815792" fill="undefined"></circle> <circle cx="36.79093795056298" cy="491.8584415503596" r="27.57993852815792" fill="undefined"></circle> <circle cx="292.790937950563" cy="491.8584415503596" r="27.57993852815792" fill="undefined"></circle> <circle cx="-219.20906204943702" cy="747.8584415503597" r="27.57993852815792" fill="undefined"></circle> <circle cx="36.79093795056298" cy="747.8584415503597" r="27.57993852815792" fill="undefined"></circle> <circle cx="292.790937950563" cy="747.8584415503597" r="27.57993852815792" fill="undefined"></circle> <circle cx="-188.14445370257965" cy="-5.078394778865629" r="15.255821859632318" fill="undefined"></circle> <circle cx="67.85554629742035" cy="-5.078394778865629" r="15.255821859632318" fill="undefined"></circle> <circle cx="323.85554629742035" cy="-5.078394778865629" r="15.255821859632318" fill="undefined"></circle> <circle cx="-188.14445370257965" cy="250.92160522113437" r="15.255821859632318" fill="undefined"></circle> <circle cx="67.85554629742035" cy="250.92160522113437" r="15.255821859632318" fill="undefined"></circle> <circle cx="323.85554629742035" cy="250.92160522113437" r="15.255821859632318" fill="undefined"></circle> <circle cx="-188.14445370257965" cy="506.92160522113437" r="15.255821859632318" fill="undefined"></circle> <circle cx="67.85554629742035" cy="506.92160522113437" r="15.255821859632318" fill="undefined"></circle> <circle cx="323.85554629742035" cy="506.92160522113437" r="15.255821859632318" fill="undefined"></circle> <circle cx="-188.14445370257965" cy="762.9216052211343" r="15.255821859632318" fill="undefined"></circle> <circle cx="67.85554629742035" cy="762.9216052211343" r="15.255821859632318" fill="undefined"></circle> <circle cx="323.85554629742035" cy="762.9216052211343" r="15.255821859632318" fill="undefined"></circle> <circle cx="-178.54572863536168" cy="115.66604251584903" r="25.498990543458508" fill="undefined"></circle> <circle cx="77.45427136463832" cy="115.66604251584903" r="25.498990543458508" fill="undefined"></circle> <circle cx="333.4542713646383" cy="115.66604251584903" r="25.498990543458508" fill="undefined"></circle> <circle cx="-178.54572863536168" cy="371.666042515849" r="25.498990543458508" fill="undefined"></circle> <circle cx="77.45427136463832" cy="371.666042515849" r="25.498990543458508" fill="undefined"></circle> <circle cx="333.4542713646383" cy="371.666042515849" r="25.498990543458508" fill="undefined"></circle> <circle cx="-178.54572863536168" cy="627.6660425158491" r="25.498990543458508" fill="undefined"></circle> <circle cx="77.45427136463832" cy="627.6660425158491" r="25.498990543458508" fill="undefined"></circle> <circle cx="333.4542713646383" cy="627.6660425158491" r="25.498990543458508" fill="undefined"></circle> 
  <animateTransform attributeName="transform" type="translate" dur="7.692307692307692s" repeatCount="indefinite" keyTimes="0;1" values="0 0;0 -256"></animateTransform>
</g><g>
  <circle cx="-43.612846036173494" cy="56.130111214237445" r="23.9462413580634" fill="undefined"></circle> <circle cx="212.3871539638265" cy="56.130111214237445" r="23.9462413580634" fill="undefined"></circle> <circle cx="468.3871539638265" cy="56.130111214237445" r="23.9462413580634" fill="undefined"></circle> <circle cx="-43.612846036173494" cy="312.13011121423744" r="23.9462413580634" fill="undefined"></circle> <circle cx="212.3871539638265" cy="312.13011121423744" r="23.9462413580634" fill="undefined"></circle> <circle cx="468.3871539638265" cy="312.13011121423744" r="23.9462413580634" fill="undefined"></circle> <circle cx="-43.612846036173494" cy="568.1301112142374" r="23.9462413580634" fill="undefined"></circle> <circle cx="212.3871539638265" cy="568.1301112142374" r="23.9462413580634" fill="undefined"></circle> <circle cx="468.3871539638265" cy="568.1301112142374" r="23.9462413580634" fill="undefined"></circle> <circle cx="-24.565862440627484" cy="32.877261515205646" r="25.15625231599006" fill="undefined"></circle> <circle cx="231.43413755937252" cy="32.877261515205646" r="25.15625231599006" fill="undefined"></circle> <circle cx="487.4341375593725" cy="32.877261515205646" r="25.15625231599006" fill="undefined"></circle> <circle cx="-24.565862440627484" cy="288.87726151520565" r="25.15625231599006" fill="undefined"></circle> <circle cx="231.43413755937252" cy="288.87726151520565" r="25.15625231599006" fill="undefined"></circle> <circle cx="487.4341375593725" cy="288.87726151520565" r="25.15625231599006" fill="undefined"></circle> <circle cx="-24.565862440627484" cy="544.8772615152056" r="25.15625231599006" fill="undefined"></circle> <circle cx="231.43413755937252" cy="544.8772615152056" r="25.15625231599006" fill="undefined"></circle> <circle cx="487.4341375593725" cy="544.8772615152056" r="25.15625231599006" fill="undefined"></circle> <circle cx="-118.32195760968375" cy="23.739135089903073" r="16.632363458204516" fill="undefined"></circle> <circle cx="137.67804239031625" cy="23.739135089903073" r="16.632363458204516" fill="undefined"></circle> <circle cx="393.67804239031625" cy="23.739135089903073" r="16.632363458204516" fill="undefined"></circle> <circle cx="-118.32195760968375" cy="279.7391350899031" r="16.632363458204516" fill="undefined"></circle> <circle cx="137.67804239031625" cy="279.7391350899031" r="16.632363458204516" fill="undefined"></circle> <circle cx="393.67804239031625" cy="279.7391350899031" r="16.632363458204516" fill="undefined"></circle> <circle cx="-118.32195760968375" cy="535.7391350899031" r="16.632363458204516" fill="undefined"></circle> <circle cx="137.67804239031625" cy="535.7391350899031" r="16.632363458204516" fill="undefined"></circle> <circle cx="393.67804239031625" cy="535.7391350899031" r="16.632363458204516" fill="undefined"></circle> <circle cx="-122.88692478546142" cy="239.5625805392791" r="11.939353150396618" fill="undefined"></circle> <circle cx="133.11307521453858" cy="239.5625805392791" r="11.939353150396618" fill="undefined"></circle> <circle cx="389.1130752145386" cy="239.5625805392791" r="11.939353150396618" fill="undefined"></circle> <circle cx="-122.88692478546142" cy="495.5625805392791" r="11.939353150396618" fill="undefined"></circle> <circle cx="133.11307521453858" cy="495.5625805392791" r="11.939353150396618" fill="undefined"></circle> <circle cx="389.1130752145386" cy="495.5625805392791" r="11.939353150396618" fill="undefined"></circle> <circle cx="-122.88692478546142" cy="751.5625805392791" r="11.939353150396618" fill="undefined"></circle> <circle cx="133.11307521453858" cy="751.5625805392791" r="11.939353150396618" fill="undefined"></circle> <circle cx="389.1130752145386" cy="751.5625805392791" r="11.939353150396618" fill="undefined"></circle> 
  <animateTransform attributeName="transform" type="translate" dur="3.846153846153846s" repeatCount="indefinite" keyTimes="0;1" values="0 0;0 -256"></animateTransform>
</g><g>
  <circle cx="-181.05832540748617" cy="-9.902709336619068" r="21.998219714501868" fill="undefined"></circle> <circle cx="74.94167459251383" cy="-9.902709336619068" r="21.998219714501868" fill="undefined"></circle> <circle cx="330.94167459251383" cy="-9.902709336619068" r="21.998219714501868" fill="undefined"></circle> <circle cx="-181.05832540748617" cy="246.09729066338093" r="21.998219714501868" fill="undefined"></circle> <circle cx="74.94167459251383" cy="246.09729066338093" r="21.998219714501868" fill="undefined"></circle> <circle cx="330.94167459251383" cy="246.09729066338093" r="21.998219714501868" fill="undefined"></circle> <circle cx="-181.05832540748617" cy="502.09729066338093" r="21.998219714501868" fill="undefined"></circle> <circle cx="74.94167459251383" cy="502.09729066338093" r="21.998219714501868" fill="undefined"></circle> <circle cx="330.94167459251383" cy="502.09729066338093" r="21.998219714501868" fill="undefined"></circle> <circle cx="-181.05832540748617" cy="758.0972906633809" r="21.998219714501868" fill="undefined"></circle> <circle cx="74.94167459251383" cy="758.0972906633809" r="21.998219714501868" fill="undefined"></circle> <circle cx="330.94167459251383" cy="758.0972906633809" r="21.998219714501868" fill="undefined"></circle> <circle cx="-9.847592895671312" cy="88.52537287161067" r="19.87193684267754" fill="undefined"></circle> <circle cx="246.1524071043287" cy="88.52537287161067" r="19.87193684267754" fill="undefined"></circle> <circle cx="502.1524071043287" cy="88.52537287161067" r="19.87193684267754" fill="undefined"></circle> <circle cx="-9.847592895671312" cy="344.52537287161067" r="19.87193684267754" fill="undefined"></circle> <circle cx="246.1524071043287" cy="344.52537287161067" r="19.87193684267754" fill="undefined"></circle> <circle cx="502.1524071043287" cy="344.52537287161067" r="19.87193684267754" fill="undefined"></circle> <circle cx="-9.847592895671312" cy="600.5253728716107" r="19.87193684267754" fill="undefined"></circle> <circle cx="246.1524071043287" cy="600.5253728716107" r="19.87193684267754" fill="undefined"></circle> <circle cx="502.1524071043287" cy="600.5253728716107" r="19.87193684267754" fill="undefined"></circle> <circle cx="-152.104003637922" cy="2.36862464408307" r="27.766280074276125" fill="undefined"></circle> <circle cx="103.895996362078" cy="2.36862464408307" r="27.766280074276125" fill="undefined"></circle> <circle cx="359.895996362078" cy="2.36862464408307" r="27.766280074276125" fill="undefined"></circle> <circle cx="-152.104003637922" cy="258.36862464408307" r="27.766280074276125" fill="undefined"></circle> <circle cx="103.895996362078" cy="258.36862464408307" r="27.766280074276125" fill="undefined"></circle> <circle cx="359.895996362078" cy="258.36862464408307" r="27.766280074276125" fill="undefined"></circle> <circle cx="-152.104003637922" cy="514.3686246440831" r="27.766280074276125" fill="undefined"></circle> <circle cx="103.895996362078" cy="514.3686246440831" r="27.766280074276125" fill="undefined"></circle> <circle cx="359.895996362078" cy="514.3686246440831" r="27.766280074276125" fill="undefined"></circle> 
  <animateTransform attributeName="transform" type="translate" dur="2.564102564102564s" repeatCount="indefinite" keyTimes="0;1" values="0 0;0 -256"></animateTransform>
</g></g></g><filter id="f">
<feDiffuseLighting lighting-color="#ffff00" surfaceScale="1.2100000000000002" result="light">
  <feDistantLight azimuth="45" elevation="60"></feDistantLight>
</feDiffuseLighting>
</filter></g></svg>